<?xml version="1.0" standalone="no"?>
<!DOCTYPE svg PUBLIC "-//W3C//DTD SVG 20010904//EN"
 "http://www.w3.org/TR/2001/REC-SVG-20010904/DTD/svg10.dtd">
<svg version="1.0" xmlns="http://www.w3.org/2000/svg"
 width="512.000000pt" height="512.000000pt" viewBox="0 0 512.000000 512.000000"
 preserveAspectRatio="xMidYMid meet">

<g transform="translate(0.000000,512.000000) scale(0.100000,-0.100000)"
fill="#000000" stroke="none">
<path d="M2029 4305 c-134 -36 -260 -139 -319 -258 l-33 -67 -47 0 c-103 0
-228 -57 -309 -141 -39 -41 -111 -166 -111 -194 0 -7 -21 -20 -47 -30 -116
-43 -214 -132 -266 -243 -30 -64 -32 -73 -32 -187 0 -116 1 -123 33 -187 35
-71 112 -164 156 -187 18 -10 26 -23 26 -41 0 -50 40 -182 71 -237 64 -111
181 -200 313 -238 73 -21 216 -16 295 11 l54 18 36 -41 c20 -23 54 -53 76 -67
50 -32 158 -60 202 -53 l33 6 0 -213 0 -214 -55 21 -55 20 0 47 c0 64 -24 130
-66 178 -36 42 -123 92 -160 92 -13 0 -26 5 -30 11 -14 23 -90 49 -143 49 -66
0 -128 -27 -169 -74 -22 -25 -40 -34 -75 -39 -124 -17 -207 -107 -207 -224 0
-73 25 -128 76 -171 21 -18 43 -37 47 -41 108 -114 137 -131 218 -131 34 0
109 29 137 53 9 7 39 10 76 9 87 -5 161 25 219 87 l44 47 69 -26 69 -26 3
-302 2 -302 -639 0 -640 0 -15 -22 c-21 -30 -20 -44 4 -68 20 -20 33 -20 1684
-20 915 0 1672 3 1681 6 27 11 38 53 20 80 -15 23 -21 24 -115 24 l-100 0 0
455 0 455 33 0 c18 0 43 7 55 16 l22 15 0 725 0 724 35 0 c35 0 85 35 85 59 0
14 -239 373 -258 389 -12 9 -108 12 -399 12 -357 0 -384 1 -389 18 -37 110
-136 227 -234 274 -118 56 -254 61 -375 13 l-66 -27 -43 40 c-95 88 -213 132
-345 131 -47 0 -107 -7 -132 -14z m224 -110 c88 -23 136 -52 203 -121 67 -70
88 -77 134 -44 63 45 112 60 200 60 73 0 94 -4 145 -29 66 -30 146 -109 163
-161 l11 -30 -76 0 c-57 0 -81 -4 -95 -17 -22 -20 -23 -61 -1 -85 15 -17 44
-18 514 -18 l499 0 70 -105 c38 -57 70 -107 70 -110 0 -3 -242 -5 -537 -5
-485 0 -538 -2 -555 -17 -25 -22 -23 -49 7 -78 l24 -25 506 0 505 0 0 -595 0
-595 -230 0 -230 0 0 118 c0 96 -4 125 -21 162 -101 224 -412 227 -515 5 -21
-43 -24 -65 -24 -167 l0 -118 -260 0 -260 0 0 30 0 30 65 0 c167 0 310 124
331 288 6 46 11 56 47 82 91 67 156 175 178 294 32 173 -62 371 -218 463 -24
14 -43 27 -43 29 0 2 9 21 20 41 29 55 27 161 -4 228 -54 117 -220 201 -294
149 -46 -32 -12 -104 48 -104 44 0 105 -34 128 -72 44 -73 36 -149 -23 -214
-58 -63 -48 -92 40 -125 99 -36 158 -87 206 -179 21 -39 24 -59 24 -145 0 -89
-3 -106 -27 -150 -54 -103 -148 -169 -267 -187 -77 -12 -91 -21 -91 -59 0 -48
25 -62 97 -56 61 5 63 4 57 -17 -12 -41 -58 -98 -99 -122 -79 -46 -163 -42
-248 13 -58 37 -83 29 -126 -42 -29 -47 -47 -65 -90 -87 -121 -63 -250 -15
-323 120 -20 38 -54 42 -103 12 -17 -11 -61 -27 -96 -36 -229 -59 -466 108
-485 341 -8 106 -11 113 -57 141 -86 54 -131 110 -162 203 -38 114 1 258 92
342 46 42 134 89 168 89 34 0 62 27 70 67 19 106 96 203 198 249 52 23 76 28
147 29 47 0 90 4 97 8 6 4 19 29 28 56 32 98 108 189 192 231 99 49 181 60
276 35z m1127 -1660 c75 -39 89 -87 90 -307 l0 -178 -170 0 -170 0 0 183 c0
195 9 237 58 280 50 45 130 54 192 22z m-990 -880 l1 -625 -56 0 -55 0 0 588
0 587 36 24 c19 13 40 33 45 43 6 10 14 16 19 13 5 -3 9 -283 10 -630z m620
420 l0 -25 -250 0 -250 0 0 25 0 25 250 0 250 0 0 -25z m1030 0 l0 -25 -225 0
-225 0 0 25 0 25 225 0 225 0 0 -25z m-2347 -38 c18 -8 38 -21 46 -30 7 -10
24 -17 38 -17 37 0 99 -36 125 -72 18 -27 23 -46 23 -99 0 -56 -4 -71 -27
-101 -17 -22 -46 -43 -73 -53 -43 -17 -59 -17 -136 1 -21 5 -35 -2 -68 -31
-70 -63 -148 -49 -191 35 -12 24 -30 42 -44 46 -45 11 -71 50 -71 106 0 44 4
53 34 80 32 29 37 30 96 24 68 -7 77 -2 109 62 16 31 61 61 94 62 7 0 27 -6
45 -13z m1324 -559 l-2 -453 -255 0 -255 0 -3 453 -2 452 259 0 259 0 -1 -452z
m453 427 l0 -25 -170 0 -170 0 0 25 0 25 170 0 170 0 0 -25z m288 -427 l-3
-453 -85 0 -85 0 -2 453 -2 452 90 0 89 0 -2 -452z m162 2 l0 -450 -25 0 -25
0 0 450 0 450 25 0 25 0 0 -450z m-450 225 l0 -55 -170 0 -170 0 0 55 0 55
170 0 170 0 0 -55z m0 -225 l0 -60 -170 0 -170 0 0 60 0 60 170 0 170 0 0 -60z
m0 -230 l0 -60 -170 0 -170 0 0 60 0 60 170 0 170 0 0 -60z m0 -200 l0 -30
-170 0 -170 0 0 30 0 30 170 0 170 0 0 -30z"/>
<path d="M1599 3677 c-45 -30 -79 -83 -79 -121 0 -41 16 -56 57 -56 28 0 35 6
53 40 24 48 55 58 100 35 40 -21 76 -8 86 30 9 35 0 52 -38 75 -47 29 -134 27
-179 -3z"/>
<path d="M3377 3282 c-15 -16 -17 -48 -17 -240 0 -187 2 -223 16 -236 13 -14
52 -16 268 -16 183 0 255 3 264 12 9 9 12 76 12 239 0 194 -2 230 -16 243 -13
14 -51 16 -263 16 -227 0 -249 -2 -264 -18z m203 -237 l0 -145 -55 0 -55 0 0
138 c0 76 3 142 7 145 3 4 28 7 55 7 l48 0 0 -145z m230 0 l0 -145 -55 0 -55
0 0 145 0 145 55 0 55 0 0 -145z"/>
<path d="M2187 3236 c-73 -27 -127 -99 -105 -141 25 -47 64 -47 105 0 36 40
59 44 97 14 35 -27 76 -22 95 13 14 25 14 29 -5 55 -44 58 -122 83 -187 59z"/>
<path d="M1416 2795 c-34 -34 -4 -124 56 -166 49 -35 142 -39 188 -7 78 53 24
137 -63 97 -33 -15 -57 -1 -82 48 -16 30 -27 39 -51 41 -19 2 -38 -3 -48 -13z"/>
<path d="M1592 1934 c-50 -35 -9 -114 52 -98 42 10 76 -18 76 -65 0 -40 23
-71 54 -71 101 0 74 179 -35 235 -37 20 -119 19 -147 -1z"/>
</g>
</svg>
